<svg xmlns="http://www.w3.org/2000/svg" viewBox="0 0 289.03 289.02"><defs><style>.cls-1{fill:#1d1d1b;}.cls-2{fill:#36a9e1;}</style></defs><g id="Calque_2" data-name="Calque 2"><g id="Calque_1-2" data-name="Calque 1"><path class="cls-1" d="M289,144.47A144.48,144.48,0,0,0,144.73,0C64.86-.18,0,64.64,0,144.55A144.47,144.47,0,0,0,144.3,289C224.15,289.21,289.07,224.37,289,144.47Z"/><path class="cls-2" d="M289,144.47c0,79.9-64.88,144.74-144.73,144.55A144.47,144.47,0,0,1,0,144.55C0,64.64,64.86-.18,144.73,0A144.48,144.48,0,0,1,289,144.47Zm-158.55-62c-4,1.54-7.93,3.13-11.93,4.59-1.81.66-4.12,2.69-5.42,1.43-1.64-1.59-1.42-4.5-.82-7,.15-.63.29-1.25.43-1.88,7.48-8.61,17.53-14,26.21-21.16,10.51-8.61,17.87-19.58,22.77-32.28,1.39-3.61.56-4.47-3.11-4.83q-55.22-5.51-97,30.94C4,102.67,7.25,196.39,68.12,242.69c1,.79,1.95,2.28,3.32,2,6.56-1.49,11.84,2.05,17.44,4.24,2.33.9,4.53,2.12,7.07,2.36,1.15.12,2.61.32,3-1.08.26-1.05-1-1.6-1.84-2.06-3.1-1.62-6.31-3.06-9.29-4.86s-8.46-2.21-8.28-5.08,5.37-4.33,8.31-6.48c8.2-6,16.7-6.89,26.18-3a101.42,101.42,0,0,0,22,6.4c1.41.24,3.55,1,4.12-.33.87-2.07-1.56-2.58-2.9-3.27-7.46-3.83-15.6-5.69-23.55-8.12-1.72-.53-3.91-.43-5.24-2.55,4.94-3,9.33-6.45,12.42-11,2.15-3.18,4.55-3.62,8-3.11,7.37,1.09,14.8,1.83,22.71,2.78-2.1-4.43-5.64-5-9.32-5.36-4.3-.39-8.61-.7-12.91-1.14-2.24-.23-3.28-1.08-1.93-3.55a50.3,50.3,0,0,0,5.36-16c.51-3.09,2-3.51,4.8-3.39,5.55.23,11.12.07,17.06.07-1.05-2.18-2.85-2.4-4.6-2.61a106,106,0,0,0-10.91-1.17c-3.72-.08-5.11-1.12-4.82-5.22.59-8.15-.3-16.06-7.39-21.74-.07-.06.33-.7.51-1.07l1.22-.18,1.84-.28a19,19,0,0,0,7.09.51l1.79.24a5.85,5.85,0,0,0,4.18.82c6.49,1.41,12.93,2.34,19.85-1.74a64.7,64.7,0,0,1-14.1-7.45c-4.51-3.16-4.66-5-.94-9.18s7.51-8.13,11-13.36c-7.22,2.08-13.61,4.39-20.33,5.34a8.31,8.31,0,0,0-.65-.68c3.18-7.71,8.26-14.53,11.15-23-4.67,0-8.79-.1-12.91,0-2.84.09-3.8-1.06-3.55-3.85.33-3.78.34-7.6.55-11.39C133.72,81.3,132.72,80.79,130.48,82.45Zm80.29,167.14a21.63,21.63,0,0,0,2.2-1.12c47.55-31.3,68.14-91.48,48.55-145-15.93-43.54-47.39-70.13-92.58-80.53-3.69-.85-5.08-.38-4.48,3.9a57.7,57.7,0,0,1-.79,19.38c-2,9.94-6.39,18.79-13,27.58,17.07-3.71,32.5-8.43,43.65-23.3C192.23,71.27,183.64,87,166.06,98.74c21.58-2.57,39.6-10.16,56.81-22.89-4.2,23.32-19.91,34.86-38.09,44.28.49.77,1.18,1.56,2.28,1.34,17.11-3.32,33.54-8.27,47.22-20.4a8.13,8.13,0,0,1-.39,4.92,69.26,69.26,0,0,1-62.21,49.79c-7.3.43-7.27.43-7.29,7.93A288.27,288.27,0,0,1,160,215.9c-3.6,19.25-15.56,30.23-33.51,35.78-4.77,1.48-9.63,2.66-14.4,4.14-2.79.86-4.83,2.57-3.69,5.9,1,3.06,3.55,3.19,6.18,2.5,7.41-1.94,14.81-3.92,21.82-7.08,13.12-5.91,22.24-15.32,26.89-29.2,6.74-20.1,8-40.75,7-61.68-.32-6.88,0-7.31,7-7.63,7.17-.33,14.53-.31,20.56-4.84,2.53-1.91,4-1.42,5.94.29a52.77,52.77,0,0,1,16.1,25.37,60.31,60.31,0,0,1,2,25.17c-5-8-9.18-15.16-19.17-17.93,4.21,6.87,7.05,12.71,8,19.23,2.38,15.92.43,31.18-7.22,45.52-3.07,1.29-1.71-1.47-1.78-2.24a47.15,47.15,0,0,0-7.21-20.73c-.07,10.67-1,21.12-4.46,31.87,6.2-2.35,11.47-4.64,16.27-7.94l1.3-.82A5.43,5.43,0,0,0,210.77,249.59Z"/><path class="cls-1" d="M127.41,148.3c-.18.37-.58,1-.51,1.07,7.09,5.68,8,13.59,7.39,21.74-.29,4.1,1.1,5.14,4.82,5.22A106,106,0,0,1,150,177.5c1.75.21,3.55.43,4.6,2.61-5.94,0-11.51.16-17.06-.07-2.76-.12-4.29.3-4.8,3.39a50.3,50.3,0,0,1-5.36,16c-1.35,2.47-.31,3.32,1.93,3.55,4.3.44,8.61.75,12.91,1.14,3.68.33,7.22.93,9.32,5.36-7.91-.95-15.34-1.69-22.71-2.78-3.45-.51-5.85-.07-8,3.11-3.09,4.56-7.48,8-12.42,11,1.33,2.12,3.52,2,5.24,2.55,8,2.43,16.09,4.29,23.55,8.12,1.34.69,3.77,1.2,2.9,3.27-.57,1.37-2.71.57-4.12.33a101.42,101.42,0,0,1-22-6.4c-9.48-3.91-18-3-26.18,3-2.94,2.15-8.12,3.59-8.31,6.48s5.38,3.33,8.28,5.08,6.19,3.24,9.29,4.86c.87.46,2.1,1,1.84,2.06-.35,1.4-1.81,1.2-3,1.08-2.54-.24-4.74-1.46-7.07-2.36-5.6-2.19-10.88-5.73-17.44-4.24-1.37.31-2.28-1.18-3.32-2C7.25,196.39,4,102.67,61.66,52.31q41.72-36.47,97-30.94c3.67.36,4.5,1.22,3.11,4.83-4.9,12.7-12.26,23.67-22.77,32.28-8.68,7.11-18.73,12.55-26.21,21.16-1.67,0-1.78-1.31-2.38-2.51-1.17-2.35-2.29-1.83-2.76.57-3.14,3.43-6.37,6.78-9.41,10.29a114.19,114.19,0,0,0-12.55,18.57c-4.53,7.92-10.79,12.87-20.41,12.8a92,92,0,0,0-12.93,1c-4.39.6-6.52,3.41-5.21,7.3,2,5.95,5.54,11.48,9.09,16.3,3.32,4.5,10.28,5.71,16.1,7.52.4-1.9-.54-2.55-1-3.35-4.22-6.71-3.92-7.89,3.05-11.28a114.62,114.62,0,0,1,30.4-9.38c2.77-.49,5.52-1.55,9.35-.73-3.71,2.29-6.68,4-9.58,5.91-5,3.21-10.54,5.78-13.78,11.21-2.69,4.5-5.56,8.85-12.11,5.88.44,2.51,1.64,5,.9,5.93-3,4-.15,6.49,1.7,9.18,4.22,6.13,8.7,12.09,7.37,21.18,5-4.88,6-9.85,5.41-15.33-.46-4.31,0-8.26,3.63-11.31,10.72-8.91,22.38-15,36.92-12.76a5,5,0,0,1-.05.67l-4,.51-1.84.28C128.13,147.51,127.74,147.71,127.41,148.3Z"/><path class="cls-1" d="M207.55,251.58l-1.3.82-2.82-1c7.65-14.34,9.6-29.6,7.22-45.52-1-6.52-3.81-12.36-8-19.23,10,2.77,14.14,9.9,19.17,17.93a60.31,60.31,0,0,0-2-25.17,52.77,52.77,0,0,0-16.1-25.37c-2-1.71-3.41-2.2-5.94-.29-6,4.53-13.39,4.51-20.56,4.84-7,.32-7.27.75-7,7.63,1,20.93-.25,41.58-7,61.68-4.65,13.88-13.77,23.29-26.89,29.2-7,3.16-14.41,5.14-21.82,7.08-2.63.69-5.14.56-6.18-2.5-1.14-3.33.9-5,3.69-5.9,4.77-1.48,9.63-2.66,14.4-4.14,17.95-5.55,29.91-16.53,33.51-35.78a288.27,288.27,0,0,0,4.44-52.19c0-7.5,0-7.5,7.29-7.93A69.26,69.26,0,0,0,233.89,106a8.13,8.13,0,0,0,.39-4.92c-13.68,12.13-30.11,17.08-47.22,20.4-1.1.22-1.79-.57-2.28-1.34,18.18-9.42,33.89-21,38.09-44.28-17.21,12.73-35.23,20.32-56.81,22.89C183.64,87,192.23,71.27,194.3,50.5c-11.15,14.87-26.58,19.59-43.65,23.3,6.63-8.79,11-17.64,13-27.58a57.7,57.7,0,0,0,.79-19.38c-.6-4.28.79-4.75,4.48-3.9,45.19,10.4,76.65,37,92.58,80.53,19.59,53.52-1,113.7-48.55,145a21.63,21.63,0,0,1-2.2,1.12A2.72,2.72,0,0,0,207.55,251.58Z"/><path class="cls-1" d="M134.45,147.33a5,5,0,0,0,.05-.67c3.46-.95,6.66.62,10,1,2.67,1,5.33,1.82,7.91-.23-2.07-1.9-4.1-3.85-6.22-5.69-6.23-5.41-6.22-5.37-.53-11.62,1.54-1.7,3.59-3.08,4.64-6.11-5.38,1.29-10,2.44-14.71,3.48-1.06.24-2.29,1.22-3.28.21-1.16-1.19-.15-2.55.32-3.7a51.26,51.26,0,0,1,3.21-6.73c2.75-4.68,5.68-9.26,9-14.57-4.44.27-8.2.32-11.91.78-3.52.44-4.07-1.08-3.22-4,.11-.09.34-.2.33-.26a3.88,3.88,0,0,0-.26-.72L130,95.4c.89-1.26.49-2.67.46-4q.2-2.92.38-5.87c.09-.12.27-.32.24-.36a6,6,0,0,0-.56-.57h0c0-.7,0-1.4,0-2.1,2.24-1.66,3.24-1.15,3.09,1.68-.21,3.79-.22,7.61-.55,11.39-.25,2.79.71,3.94,3.55,3.85,4.12-.14,8.24,0,12.91,0-2.89,8.48-8,15.3-11.15,23l-.55.65,1.2,0c6.72-1,13.11-3.26,20.33-5.34-3.46,5.23-7.3,9.23-11,13.36s-3.57,6,.94,9.18a64.7,64.7,0,0,0,14.1,7.45c-6.92,4.08-13.36,3.15-19.85,1.74-1.21-1.19-2.7-1-4.18-.82l-1.79-.24C136.75,147.33,135.51,147.6,134.45,147.33Z"/><path class="cls-1" d="M203.43,251.44l2.82,1c-4.8,3.3-10.07,5.59-16.27,7.94,3.46-10.75,4.39-21.2,4.46-31.87a47.15,47.15,0,0,1,7.21,20.73C201.72,250,200.36,252.73,203.43,251.44Z"/><path class="cls-1" d="M130.48,82.45c0,.7,0,1.4,0,2.1-4.92,2.09-9.25,5.22-13.51,8.34-3.25,2.37-4.41,1.28-5.65-1.85a27.76,27.76,0,0,1-2.07-10.66c0-1.19.65-2.88-1.66-2.68.47-2.4,1.59-2.92,2.76-.57.6,1.2.71,2.47,2.38,2.51-.14.63-.28,1.25-.43,1.88-.6,2.45-.82,5.36.82,7,1.3,1.26,3.61-.77,5.42-1.43C122.55,85.58,126.51,84,130.48,82.45Z"/><path class="cls-1" d="M134.45,147.33c1.06.27,2.3,0,3.11,1a19,19,0,0,1-7.09-.51Z"/><path class="cls-1" d="M139.35,148.59c1.48-.14,3-.37,4.18.82A5.85,5.85,0,0,1,139.35,148.59Z"/><path class="cls-1" d="M207.55,251.58a2.72,2.72,0,0,1,3.22-2A5.43,5.43,0,0,1,207.55,251.58Z"/><path class="cls-1" d="M127.41,148.3c.33-.59.72-.79,1.22-.18Z"/><path class="cls-2" d="M107.6,77.7c2.31-.2,1.67,1.49,1.66,2.68A27.76,27.76,0,0,0,111.33,91c1.24,3.13,2.4,4.22,5.65,1.85,4.26-3.12,8.59-6.25,13.51-8.34h0a1.82,1.82,0,0,0,.32.93q-.18,2.94-.38,5.87a6,6,0,0,0-.46,4l-.27,3.14-.07,1c-.85,2.88-.3,4.4,3.22,4,3.71-.46,7.47-.51,11.91-.78-3.28,5.31-6.21,9.89-9,14.57a51.26,51.26,0,0,0-3.21,6.73c-.47,1.15-1.48,2.51-.32,3.7,1,1,2.22,0,3.28-.21,4.67-1,9.33-2.19,14.71-3.48-1.05,3-3.1,4.41-4.64,6.11-5.69,6.25-5.7,6.21.53,11.62,2.12,1.84,4.15,3.79,6.22,5.69l-7.91.23c-3.32-.38-6.52-1.95-10-1-14.54-2.22-26.2,3.85-36.92,12.76-3.66,3.05-4.09,7-3.63,11.31.58,5.48-.41,10.45-5.41,15.33,1.33-9.09-3.15-15.05-7.37-21.18-1.85-2.69-4.74-5.21-1.7-9.18.74-1-.46-3.42-.9-5.93,6.55,3,9.42-1.38,12.11-5.88,3.24-5.43,8.77-8,13.78-11.21,2.9-1.86,5.87-3.62,9.58-5.91-3.83-.82-6.58.24-9.35.73a114.62,114.62,0,0,0-30.4,9.38c-7,3.39-7.27,4.57-3.05,11.28.5.8,1.44,1.45,1,3.35-5.82-1.81-12.78-3-16.1-7.52-3.55-4.82-7.09-10.35-9.09-16.3-1.31-3.89.82-6.7,5.21-7.3a92,92,0,0,1,12.93-1c9.62.07,15.88-4.88,20.41-12.8A114.19,114.19,0,0,1,98.19,88C101.23,84.48,104.46,81.13,107.6,77.7Zm-13,35.88c7-.24,12.52-3.93,17.93-7.8,1-.75,2.32-1.85,1.67-3.26s-2-.31-3.1-.2c-7.53.78-12.33,5.54-16.44,11.3l-.75.2Z"/><path class="cls-1" d="M144.48,147.66l7.91-.23C149.81,149.48,147.15,148.65,144.48,147.66Z"/><path class="cls-1" d="M130,95.4a6,6,0,0,1,.46-4C130.48,92.73,130.88,94.14,130,95.4Z"/><path class="cls-1" d="M130.83,85.49a1.82,1.82,0,0,1-.32-.93,6,6,0,0,1,.56.57S130.92,85.37,130.83,85.49Z"/><path class="cls-1" d="M129.65,99.52l.07-1a3.88,3.88,0,0,1,.26.72C130,99.32,129.76,99.43,129.65,99.52Z"/><path class="cls-1" d="M139,123l-1.2,0,.55-.65A8.31,8.31,0,0,1,139,123Z"/><path class="cls-1" d="M94.68,113.63c4.1-5.77,8.9-10.53,16.43-11.31,1.06-.11,2.45-1.22,3.1.2s-.62,2.51-1.67,3.26c-5.41,3.87-10.93,7.56-17.93,7.8Z"/><path class="cls-1" d="M94.61,113.58l-.69.24.75-.2Z"/></g></g></svg>