<svg xmlns="http://www.w3.org/2000/svg" viewBox="0 0 111.15 98.08"><defs><style>.cls-1{fill:#ab7b17;}.cls-2{fill:#a27216;}.cls-3{fill:#b38416;}.cls-4{fill:#b58814;}.cls-5{fill:#c9a021;}</style></defs><g id="Calque_2" data-name="Calque 2"><g id="Calque_1-2" data-name="Calque 1"><path class="cls-1" d="M19.17,39.33c-1.77-4.82-3.66-9.44-2.63-15a6.19,6.19,0,0,0-4.1-6.4l-.68-.7-.11-1.08c1.51-1.09,1.26-3.88,3.81-4,.72,1.17,1.9,1,3,1l0,0c1.63,1.91,1.21,7.59,5.56,4.43,2.63-1.9,3.69-.67,5.05.33,1.15.85,1.79,2.37,3.59,2.08L32.62,20c.18.39.37.78.56,1.17-1.37,4.72.85,8.63,2.86,12.6s4.55,8,5.22,12.71c.15,1.06.48,2,1.85,1.06.53,1,.89,2.18,2.27,2.18.23,0,.73-.75.64-1-.43-1.24-1.53-1.52-2.72-1.58a4.18,4.18,0,0,1,1-3.07l7.87,4.41c-2.67-3.92,4-5.47-.14-9,2.59-.67,5.77-.52,5.5-4.34,1.43,0,2.9.06,3-2,2.49-1.66,3.22.21,4,2-1.33,0-2.26.77-2.22,2,.05,1.48,1.45.73,2.25,1,0,1.33,0,2.66,0,4-.82-.13-2.09-1.41-2.36-.19-.39,1.71,1.46.92,2.35,1.2.85,1.24-1.6,4,1.72,3.95.45,0,.84-2,1.88-.49.66,1,.73,2.47-.3,3.11s-1.54,3.34-2.28,2.35c-2.73-3.68-2.44,1.55-3.89,1.06l-4-11.45c-3.08,7.4-4.25,14.48-8.09,20.44-1.47-1.34-2-4.2-5-3v0c-.33-1.33-.65-2.66-1-4l1.29-.4-.25-.37-1.06.74c-5.53.06-.24,2.76-1,4H34.61c1.57,1.54.53,3.74,2.84,4,3.33,5.08,5.61,5.34,9.43,1.14.23-.26.94-.1,1.43-.13C47.94,72,44.16,78.43,41,85.3c-1.51,3.28.39,8.09-3.38,12.08L19.49,40.2c3.07-.26,3.26,3.77,6,4,.13,1,.37,2,1.72,1.81,1.13-.16.91-1,.9-1.86s.72-.9,1.36-1c1.58-.18,3.66.68,4-2l1.29-.4-.26-.37-1.06.73c-2.92-.69-.13-2.78-1-4l.22-.43-.24.41c-1.87,2.22-6-4.67-6.89,1.72a1.76,1.76,0,0,1-.88.11C22.5,33.19,21,39.88,19.17,39.33Z"/><path class="cls-2" d="M64.46,42.2c0-1.33,0-2.66,0-4,5.3.62,3.79-3.23,3.94-6-.22-2.07-.44-4.14-.81-7.7,2.36,3.33,3.3,6.58,6.76,6.72,2.76,5.22,3.29,11.18,5.64,17.1.7-2,1.23-3.55,1.77-5.08,1.51,3.53,3,4.54,6,.88a4.83,4.83,0,0,1,6.67-.94,12.6,12.6,0,0,1-3.05,6A7.66,7.66,0,0,0,82,50.44c3.89,1.61,4.09,2.39,1.5,4.75-.14-.72-.1-1.58-1.2-1.51A.46.46,0,0,0,82,54c-.06,1.1.79,1.06,1.51,1.19-.18,2.37,2.11,4.14,1.36,6.83-.36,1.28,1.67,1,2.74,1.19-2.64,11.6-6.9,22.64-11.37,34.88C72.74,88.93,70,80.87,68.72,72.61c-1.13-7.1-5.93-12.55-7.14-19.42,1.45.49,1.16-4.74,3.89-1.06.74,1,1.21-1.68,2.28-2.35s1-2.12.3-3.11c-1-1.53-1.43.49-1.88.49-3.32,0-.87-2.71-1.72-3.95l0,0c.13-.1.38-.24.37-.27a6,6,0,0,0-.38-.71Zm8,0c-1.81.26-3.83-.58-6.41,1.41,3.59.09,4.35,2.28,5.57,4.12s2.35,1,3.58-.29c1.38-1.41,1-2.39-.53-3-1.13-.47-2.18-.78-2.21-2.23,1.18-.23,2.64.57,4-1.8-2.53.73-3.4-3-5.6-1.23C69.56,40.21,72,41.12,72.46,42.2Zm.87,17.54c1.43,2.34,3.38,3.17,5.89,1.87.72-.38,1.41-1.34.44-2C77.6,58.27,75.4,58,73.33,59.74Zm3.1-3.8.4-.22c-.12-.09-.23-.25-.35-.26s-.26.13-.39.2Z"/><path class="cls-3" d="M106.59,9.27,98.36,30.18l-2.88-1c.27-4.21-1.57-6.32-5.91-5.93l.91-2c1.8,2,1.9-.94,3-1,1.22,1.4,3.15,1.54,3.8.23.5-1-.76-2.88-1.27-4.26-.63-1.68-2.41-1.21-3.59.15-.89-.21-1.67-.65-1.26-1.67C93.21,9.47,92,5.08,88,.4c7.29,0,14.58,0,21.87,0,1.43,0,1.59,1,1,2-1,1.67-2.15,3.29-3.22,4.94a2.16,2.16,0,0,0-3.51.71C103.74,9.61,105.6,9.06,106.59,9.27Zm-4.25,1.61c-.09-1.35-1.12-1.63-2.36-1.61-1,0-2.14,0-2.29,1.28-.18,1.46,1.09,1.92,2.16,2.24C101.27,13.22,101.94,12.32,102.34,10.88Z"/><path class="cls-2" d="M64.44,35.22c-.76-1.79-1.49-3.66-4-2-2.34.13-4.4,0-4-3.29.64-4.6-3.11-5.83-6-7.7q1.65-6,3.29-12l.63,0c.27,1.11-.2,3.32,1.86,2.38,3.11-1.41,6.15.14,9.16-.45A2.07,2.07,0,0,0,67.57,11C71,14.41,69,19.38,71.1,23.18a12.51,12.51,0,0,1-1.5,0c-5.21-.47-6.54-2.36-4.9-7.16.26-.74.37-1.2-.31-1.61A7,7,0,0,0,59.56,14c-2,.31-.73,2.14-1.08,3.25l0,0H53.18c1.48,1.62.26,3.7,3.83,4.7,4.78,1.33,10.51,4,9.53,11.24C66.14,34.16,67.18,36.62,64.44,35.22Z"/><path class="cls-1" d="M89.57,23.24c4.34-.39,6.18,1.72,5.91,5.93-1.18.15-2.83.59-2.49,1.77.68,2.37,3.06.81,4.61,1.32-1.39,3.55-2.79,7.1-3.2,10.94a4.83,4.83,0,0,0-6.67.94c-2.92,3.66-4.45,2.65-6-.88A111.48,111.48,0,0,1,89.57,23.24Z"/><path class="cls-3" d="M32.69,20.08c-1.8.29-2.44-1.23-3.59-2.08-1.36-1-2.42-2.23-5.05-.33-4.35,3.16-3.93-2.52-5.56-4.43.07-.15.14-.29.22-.44l-.25.41c-1.1,0-2.28.18-3-1a6,6,0,0,0-.19-1c-.41-1.1-2.8-2.37,0-3.12.58-.16,4.12-3.33,3.65,1.39-.09.84.83,1.23,1.8,1.09,2.25-.32,1.64,1.43,1.81,2.59.32.71.64.7,1,0,1-.63,1.45-2.16,3-2l.72,1.58.59-.38-1.3-1.21c-.3-3.84-3.2-4.53-6.19-5-2-.28-4-.45-5.44-2.16C17,2,18,5.63,19.71,4.6L18.49,1.29c.8.16,1.88,1.16,2-.67A14.82,14.82,0,0,1,26.9.75c.79-.9,2.07,4.52,2.57-.19h3.05l1.06,1.76C26.79,7.92,31.87,14.1,32.69,20.08Z"/><path class="cls-1" d="M67.57,11a2.07,2.07,0,0,1-2.13,1.18c.8-4.09-4.29-1.27-4.68-4-4,5.79-2.07-1.24-3.51-1.6l-2.83,3.64-.63,0C55.61,6,50.53,4.61,49.94.44c5.66,0,11.28,0,16.9,0,2,0,1.88,1.57,1.76,2.85C68.34,5.88,67.92,8.44,67.57,11Z"/><path class="cls-4" d="M58.48,17.21c.35-1.11-.88-2.94,1.08-3.25a7,7,0,0,1,4.83.47c.68.41.57.87.31,1.61-1.64,4.8-.31,6.69,4.9,7.16a12.51,12.51,0,0,0,1.5,0,21.89,21.89,0,0,1,3.26,8.06c-3.46-.14-4.4-3.39-6.76-6.72.37,3.56.59,5.63.81,7.69l-1.87,1c1-7.21-4.75-9.91-9.53-11.24-3.57-1-2.35-3.08-3.83-4.7h5.27c.15.71.13,1.57,1.23,1.49a.48.48,0,0,0,.31-.31C60.06,17.32,59.21,17.33,58.48,17.21Z"/><path class="cls-2" d="M18.49,1.29,19.71,4.6C18,5.63,17,2,14.85,4.11,16.29,5.82,18.27,6,20.29,6.27c3,.42,5.89,1.11,6.19,5h0c-1.56-.17-2,1.36-3,2h-1c-.17-1.16.44-2.91-1.81-2.59-1,.14-1.89-.25-1.8-1.09.47-4.72-3.07-1.55-3.65-1.39-2.76.75-.37,2,0,3.12a6,6,0,0,1,.19,1c-2.55.09-2.3,2.88-3.81,4-1-4.07-3.79-6.91-6.42-9.9C7.05,6.34,8.44,6,8.58,3.7c.1-1.49,1.2-2.73,2.64-2.23C13.75,2.36,16.06.75,18.49,1.29Zm-7.26,5,.83-1.07c-.32-.22-.71-.66-1-.6s-.62.57-.92.88Z"/><path class="cls-2" d="M57.48,35.2c.27,3.82-2.91,3.67-5.5,4.34,4.13,3.5-2.53,5.05.14,9L44.25,44.1a33.5,33.5,0,0,1,2.39-8.9C50.25,33.47,53.86,34.35,57.48,35.2Z"/><path class="cls-3" d="M83.46,55.19c2.59-2.36,2.39-3.14-1.5-4.75a7.66,7.66,0,0,1,9.39-1.24c-1.79,4.52-1.44,9.63-3.79,14-1.07-.16-3.1.09-2.74-1.19.75-2.69-1.54-4.46-1.36-6.83Z"/><path class="cls-3" d="M57.48,35.2c-3.62-.85-7.23-1.73-10.84,0,.3-1,.61-2,.91-3,2.85-.35,4.16-2.41,4.47-4.84.19-1.53-1.62-1-2.63-1.13a5.75,5.75,0,0,1,1.11-4c2.89,1.87,6.64,3.1,6,7.7-.44,3.25,1.62,3.42,4,3.29C60.38,35.26,58.91,35.2,57.48,35.2Z"/><path class="cls-5" d="M18.49,1.29c-2.43-.54-4.74,1.07-7.27.18C9.78,1,8.68,2.21,8.58,3.7,8.44,6,7.05,6.34,5.23,6.29c-2-1.51-5.85-2.39-5.14-5C.74-1,4.44.47,6.76.4c4.58-.14,9.16.12,13.75.22C20.37,2.45,19.29,1.45,18.49,1.29Z"/><path class="cls-2" d="M19.17,39.33c1.86.55,3.33-6.14,5.52-.31a1.76,1.76,0,0,0,.88-.11c.86-6.39,5,.5,6.89-1.72l0,0c.85,1.19-1.94,3.28,1,4l0,0c-.36,2.65-2.44,1.79-4,2-.17-1.85-1.49-2.84-3-2.45s-.7,2.27-1,3.47c-2.74-.24-2.93-4.27-6-4A.92.92,0,0,1,19.17,39.33Z"/><path class="cls-2" d="M44.46,59.21c3-1.23,3.56,1.63,5,3-.4.66-.79,1.32-1.18,2-.49,0-1.2-.13-1.43.13-3.82,4.2-6.1,3.94-9.43-1.14.42-.59,1-.91,1.6-.42,1.28,1.07,2.17,2.87,4.37,1.5S44.89,61,44.46,59.21Z"/><path class="cls-2" d="M92.4,16.34c1.18-1.36,3-1.83,3.59-.15.51,1.38,1.77,3.25,1.27,4.26-.65,1.31-2.58,1.17-3.8-.23-.34-1-.67-2-1-3C92.45,16.93,92.43,16.63,92.4,16.34Z"/><path class="cls-2" d="M49.39,26.24c1,.16,2.82-.4,2.63,1.13-.31,2.43-1.62,4.49-4.47,4.84A13.54,13.54,0,0,1,49.39,26.24Z"/><path class="cls-2" d="M97.6,32.26c-1.55-.51-3.93,1.05-4.61-1.32-.34-1.18,1.31-1.62,2.49-1.77l2.88,1A2.06,2.06,0,0,1,97.6,32.26Z"/><path class="cls-2" d="M106.59,9.27c-1-.21-2.85.34-2.53-1.16a2.16,2.16,0,0,1,3.51-.71Z"/><path class="cls-1" d="M92.46,17.22c.33,1,.66,2,1,3-1.08.1-1.18,3-3,1A6.39,6.39,0,0,1,92.46,17.22Z"/><path class="cls-2" d="M43.3,47.17c1.19.06,2.29.34,2.72,1.58.09.24-.41,1-.64,1-1.38,0-1.74-1.2-2.27-2.18Z"/><path class="cls-5" d="M29.47.56C29,5.27,27.69-.15,26.9.75A2.85,2.85,0,0,1,29.47.56Z"/><path class="cls-5" d="M33.58,2.33,32.52.57c.59.07,1.46-.08,1.7.24C34.58,1.31,34.24,2,33.58,2.33Z"/><path class="cls-3" d="M11.76,17.27l.68.7C11.72,18.22,11.68,17.8,11.76,17.27Z"/><path class="cls-3" d="M33.18,21.19c-.19-.39-.38-.78-.56-1.17C32.8,20.41,33,20.8,33.18,21.19Z"/><path class="cls-4" d="M44.46,59.21c.43,1.83,1.17,3.66-1,5s-3.09-.43-4.37-1.5c-.58-.49-1.18-.17-1.6.42-2.31-.25-1.27-2.45-2.84-4h7.87l2,0Z"/><path class="cls-3" d="M66.54,33.18l1.87-1c-.15,2.77,1.36,6.62-3.94,6-.8-.23-2.2.52-2.25-1,0-1.26.89-2,2.22-2C67.18,36.62,66.14,34.16,66.54,33.18Z"/><path class="cls-4" d="M25.49,44.21c.26-1.2-.7-3.05,1-3.47s2.85.6,3,2.45c-.64.07-1.38.14-1.36,1s.23,1.7-.9,1.86C25.86,46.22,25.62,45.23,25.49,44.21Z"/><path class="cls-2" d="M44.45,59.19l-2,0c.74-1.24-4.55-3.94,1-4l0,0C43.8,56.53,44.12,57.86,44.45,59.19Z"/><path class="cls-2" d="M64.45,43.21c-.89-.28-2.74.51-2.35-1.2.27-1.22,1.54.06,2.36.19h0c0,.32,0,.65,0,1Z"/><path class="cls-2" d="M33.46,41.18l1.06-.73.26.37-1.29.4Z"/><path class="cls-2" d="M43.46,55.17l1.06-.74.25.37-1.29.4Z"/><path class="cls-2" d="M32.46,37.19l.24-.41-.22.43Z"/><path class="cls-3" d="M72.46,42.2c0,1.45,1.08,1.76,2.21,2.23,1.49.62,1.91,1.6.53,3-1.23,1.25-2.4,2.05-3.58.29s-2-4-5.57-4.12c2.58-2,4.6-1.15,6.41-1.41Z"/><path class="cls-3" d="M73.33,59.74c2.07-1.71,4.27-1.47,6.33-.11,1,.64.28,1.6-.44,2C76.71,62.91,74.76,62.08,73.33,59.74Z"/><path class="cls-3" d="M72.46,42.2c-.51-1.08-2.9-2-1.6-3,2.2-1.76,3.07,2,5.6,1.23-1.36,2.37-2.82,1.57-4,1.8Z"/><path class="cls-3" d="M83.46,55.18c-.72-.13-1.57-.09-1.51-1.19a.46.46,0,0,1,.31-.31c1.1-.07,1.06.79,1.2,1.51Z"/><path class="cls-3" d="M76.43,55.94l-.34-.28c.13-.07.27-.21.39-.2s.23.17.35.26Z"/><path class="cls-1" d="M64.48,43.18c0-.33,0-.66,0-1a6,6,0,0,1,.38.71S64.61,43.08,64.48,43.18Z"/><path class="cls-2" d="M102.34,10.88c-.4,1.44-1.07,2.34-2.49,1.91-1.07-.32-2.34-.78-2.16-2.24C97.84,9.28,99,9.28,100,9.27,101.22,9.25,102.25,9.53,102.34,10.88Z"/><path class="cls-4" d="M54.42,10.26l2.83-3.64c1.44.36-.5,7.39,3.51,1.6.39,2.7,5.48-.12,4.68,4-3,.59-6-1-9.16.45C54.22,13.58,54.69,11.37,54.42,10.26Z"/><path class="cls-2" d="M26.48,11.22l1.3,1.21-.59.38-.72-1.58Z"/><path class="cls-1" d="M22.49,13.21h1C23.13,13.91,22.81,13.92,22.49,13.21Z"/><path class="cls-1" d="M18.46,13.21l.25-.41c-.08.15-.15.29-.22.44Z"/><path class="cls-2" d="M58.48,17.21c.73.12,1.58.11,1.51,1.21a.48.48,0,0,1-.31.31c-1.1.08-1.08-.78-1.23-1.49Z"/><path class="cls-3" d="M11.23,6.31l-1-.79c.3-.31.56-.78.92-.88s.63.38,1,.6Z"/></g></g></svg>